<?xml version="1.0" encoding="UTF-8"?>
<svg xmlns="http://www.w3.org/2000/svg" xmlns:xlink="http://www.w3.org/1999/xlink" width="22px" height="22px" viewBox="0 0 22 22" version="1.1">
<g id="surface1">
<path style=" stroke:none;fill-rule:nonzero;fill:rgb(100%,100%,100%);fill-opacity:1;" d="M 9.582031 0.046875 C 9.320312 0.148438 9.152344 0.414062 9.152344 0.707031 C 9.152344 0.941406 9.230469 1.109375 9.410156 1.257812 L 9.539062 1.371094 L 9.539062 2.59375 C 9.539062 3.476562 9.550781 3.824219 9.585938 3.824219 C 9.613281 3.824219 9.75 3.878906 9.886719 3.953125 L 10.140625 4.082031 L 10.140625 1.390625 L 10.273438 1.261719 C 10.457031 1.089844 10.535156 0.921875 10.535156 0.707031 C 10.535156 0.214844 10.035156 -0.132812 9.582031 0.046875 Z M 9.582031 0.046875 "/>
<path style=" stroke:none;fill-rule:nonzero;fill:rgb(100%,100%,100%);fill-opacity:1;" d="M 14.273438 0.0742188 C 14.191406 0.113281 14.078125 0.207031 14.015625 0.289062 L 13.902344 0.429688 L 11.46875 0.429688 L 11.367188 0.535156 L 11.257812 0.640625 L 11.257812 4.300781 L 11.445312 4.160156 C 11.550781 4.082031 11.695312 3.984375 11.769531 3.945312 L 11.902344 3.871094 L 11.902344 1.074219 L 13.953125 1.074219 L 14.054688 1.1875 C 14.546875 1.71875 15.449219 1.230469 15.257812 0.527344 C 15.148438 0.117188 14.648438 -0.113281 14.273438 0.0742188 Z M 14.273438 0.0742188 "/>
<path style=" stroke:none;fill-rule:nonzero;fill:rgb(100%,100%,100%);fill-opacity:1;" d="M 5.957031 2.039062 C 5.488281 2.207031 5.316406 2.738281 5.613281 3.125 C 5.753906 3.3125 5.925781 3.394531 6.167969 3.394531 C 6.398438 3.394531 6.566406 3.316406 6.714844 3.136719 L 6.828125 3.007812 L 7.949219 3.007812 L 7.949219 3.484375 C 7.949219 3.921875 7.957031 3.960938 8.027344 3.941406 C 8.066406 3.925781 8.207031 3.875 8.335938 3.832031 L 8.574219 3.75 L 8.574219 3.167969 C 8.574219 2.351562 8.621094 2.390625 7.59375 2.371094 L 6.8125 2.359375 L 6.683594 2.226562 C 6.476562 2.015625 6.210938 1.945312 5.957031 2.039062 Z M 5.957031 2.039062 "/>
<path style=" stroke:none;fill-rule:nonzero;fill:rgb(100%,100%,100%);fill-opacity:1;" d="M 14.644531 2.632812 C 14.554688 2.683594 14.449219 2.769531 14.410156 2.828125 C 14.347656 2.917969 14.320312 2.921875 13.660156 2.921875 C 12.8125 2.921875 12.804688 2.925781 12.804688 3.410156 L 12.804688 3.726562 L 13.011719 3.75 C 13.121094 3.769531 13.257812 3.789062 13.3125 3.808594 C 13.394531 3.832031 13.40625 3.820312 13.40625 3.699219 L 13.40625 3.566406 L 13.882812 3.566406 C 14.355469 3.566406 14.355469 3.566406 14.464844 3.691406 C 14.601562 3.855469 14.902344 3.96875 15.089844 3.9375 C 15.753906 3.8125 15.90625 3.011719 15.34375 2.632812 C 15.152344 2.5 14.859375 2.5 14.644531 2.632812 Z M 14.644531 2.632812 "/>
<path style=" stroke:none;fill-rule:nonzero;fill:rgb(100%,100%,100%);fill-opacity:1;" d="M 8.777344 4.617188 C 8.105469 4.765625 7.59375 5.234375 7.292969 5.976562 C 7.234375 6.109375 7.199219 6.140625 7.019531 6.183594 C 6.90625 6.214844 6.699219 6.292969 6.566406 6.367188 C 5.808594 6.773438 5.339844 7.546875 5.257812 8.523438 L 5.230469 8.890625 L 5 9.074219 C 4.363281 9.582031 3.976562 10.417969 4.054688 11.105469 C 4.117188 11.640625 4.4375 12.296875 4.804688 12.648438 L 4.933594 12.769531 L 4.910156 13.164062 C 4.867188 13.886719 5.125 14.53125 5.675781 15.085938 C 6.003906 15.417969 6.523438 15.695312 6.941406 15.773438 C 7.25 15.828125 7.289062 15.859375 7.320312 16.042969 C 7.359375 16.242188 7.636719 16.65625 7.871094 16.875 C 8.230469 17.195312 8.738281 17.402344 9.199219 17.402344 C 9.738281 17.402344 10.339844 17.089844 10.65625 16.640625 C 10.886719 16.316406 10.914062 16.316406 11.097656 16.605469 C 11.46875 17.1875 12.15625 17.484375 12.839844 17.363281 C 13.492188 17.246094 14.1875 16.746094 14.429688 16.21875 C 14.617188 15.808594 14.621094 15.804688 14.894531 15.703125 C 15.84375 15.367188 16.441406 14.523438 16.53125 13.398438 L 16.554688 13.0625 L 16.78125 12.878906 C 17.425781 12.347656 17.746094 11.738281 17.746094 11.050781 C 17.746094 10.445312 17.5625 9.972656 17.113281 9.425781 L 16.875 9.140625 L 16.867188 8.621094 C 16.859375 8.210938 16.839844 8.042969 16.765625 7.851562 C 16.4375 6.945312 15.59375 6.238281 14.742188 6.152344 C 14.5625 6.132812 14.453125 6.101562 14.4375 6.058594 C 14.417969 6.023438 14.34375 5.863281 14.269531 5.707031 C 14.007812 5.148438 13.429688 4.710938 12.792969 4.59375 C 12.144531 4.472656 11.4375 4.765625 11.046875 5.3125 C 10.96875 5.414062 10.882812 5.5 10.859375 5.5 C 10.828125 5.5 10.6875 5.367188 10.535156 5.199219 C 10.238281 4.867188 9.898438 4.671875 9.5 4.597656 C 9.210938 4.542969 9.113281 4.546875 8.777344 4.617188 Z M 9.554688 5.292969 C 9.800781 5.367188 10.140625 5.714844 10.328125 6.097656 C 10.5 6.433594 10.578125 6.488281 10.875 6.488281 C 11.144531 6.488281 11.296875 6.390625 11.328125 6.1875 C 11.34375 6.089844 11.414062 5.925781 11.480469 5.820312 C 11.902344 5.1875 12.632812 5.058594 13.257812 5.503906 C 13.761719 5.871094 13.921875 6.566406 13.605469 7.035156 C 13.460938 7.238281 13.460938 7.40625 13.605469 7.550781 C 13.816406 7.761719 14.132812 7.570312 14.296875 7.132812 C 14.402344 6.835938 14.425781 6.820312 14.675781 6.847656 C 15.171875 6.90625 15.777344 7.378906 16.011719 7.878906 C 16.191406 8.269531 16.226562 8.578125 16.144531 8.972656 C 16.105469 9.152344 16.070312 9.320312 16.070312 9.335938 C 16.070312 9.359375 16.226562 9.535156 16.414062 9.730469 C 16.882812 10.222656 17.039062 10.539062 17.039062 11.019531 C 17.039062 11.304688 17.015625 11.40625 16.921875 11.609375 C 16.785156 11.90625 16.484375 12.238281 16.148438 12.464844 C 16.011719 12.558594 15.882812 12.671875 15.855469 12.71875 C 15.835938 12.761719 15.8125 12.980469 15.8125 13.203125 C 15.8125 13.65625 15.738281 13.960938 15.550781 14.292969 C 15.339844 14.664062 14.8125 15.089844 14.640625 15.027344 C 14.605469 15.011719 14.519531 14.878906 14.449219 14.726562 C 14.378906 14.574219 14.25 14.382812 14.167969 14.296875 C 14.011719 14.140625 13.515625 13.832031 13.332031 13.777344 C 13.199219 13.734375 12.984375 13.855469 12.949219 13.996094 C 12.898438 14.191406 12.980469 14.3125 13.300781 14.507812 C 13.667969 14.734375 13.859375 14.9375 13.921875 15.171875 C 14.148438 16.015625 13.089844 16.933594 12.199219 16.664062 C 11.820312 16.550781 11.546875 16.171875 11.386719 15.546875 C 11.289062 15.167969 11.203125 15.082031 10.914062 15.082031 C 10.652344 15.082031 10.5625 15.160156 10.464844 15.488281 C 10.355469 15.863281 10.207031 16.140625 9.980469 16.375 C 9.734375 16.640625 9.507812 16.730469 9.121094 16.707031 C 8.335938 16.664062 7.757812 15.929688 7.945312 15.21875 C 8.007812 14.996094 8.238281 14.730469 8.503906 14.578125 C 8.90625 14.347656 8.980469 14.273438 8.980469 14.097656 C 8.980469 13.925781 8.902344 13.828125 8.730469 13.769531 C 8.664062 13.75 8.554688 13.785156 8.371094 13.878906 C 7.8125 14.171875 7.53125 14.453125 7.363281 14.898438 L 7.289062 15.089844 L 7.085938 15.074219 C 6.789062 15.042969 6.425781 14.851562 6.148438 14.570312 C 5.699219 14.121094 5.511719 13.519531 5.640625 12.941406 C 5.679688 12.773438 5.703125 12.597656 5.683594 12.558594 C 5.667969 12.515625 5.527344 12.359375 5.371094 12.203125 C 4.761719 11.609375 4.597656 10.890625 4.925781 10.238281 C 5.042969 10.003906 5.386719 9.636719 5.703125 9.414062 C 5.800781 9.339844 5.898438 9.25 5.921875 9.207031 C 5.941406 9.164062 5.964844 8.945312 5.964844 8.722656 C 5.964844 7.933594 6.324219 7.265625 6.914062 6.960938 C 7.191406 6.820312 7.246094 6.839844 7.398438 7.160156 C 7.472656 7.3125 7.613281 7.523438 7.714844 7.632812 C 7.863281 7.789062 7.917969 7.820312 8.046875 7.820312 C 8.242188 7.820312 8.378906 7.699219 8.378906 7.523438 C 8.378906 7.441406 8.320312 7.332031 8.207031 7.191406 C 7.996094 6.933594 7.886719 6.601562 7.917969 6.3125 C 8.003906 5.589844 8.824219 5.078125 9.554688 5.292969 Z M 9.554688 5.292969 "/>
<path style=" stroke:none;fill-rule:nonzero;fill:rgb(100%,100%,100%);fill-opacity:1;" d="M 9.304688 8.816406 C 9.277344 8.886719 7.964844 12.371094 7.929688 12.46875 C 7.898438 12.542969 7.945312 12.546875 8.496094 12.546875 L 9.097656 12.546875 L 9.183594 12.253906 L 9.269531 11.964844 L 9.9375 11.953125 L 10.609375 11.941406 L 10.703125 12.246094 L 10.792969 12.546875 L 12.023438 12.546875 L 10.601562 8.765625 L 9.960938 8.765625 C 9.488281 8.765625 9.316406 8.777344 9.304688 8.816406 Z M 10.152344 10.425781 C 10.238281 10.707031 10.320312 10.972656 10.339844 11.011719 C 10.359375 11.078125 10.320312 11.085938 9.953125 11.085938 C 9.722656 11.085938 9.539062 11.082031 9.539062 11.074219 C 9.539062 11.070312 9.578125 10.949219 9.621094 10.804688 C 9.664062 10.664062 9.753906 10.375 9.820312 10.167969 C 9.894531 9.921875 9.949219 9.804688 9.96875 9.84375 C 9.984375 9.878906 10.066406 10.136719 10.152344 10.425781 Z M 10.152344 10.425781 "/>
<path style=" stroke:none;fill-rule:nonzero;fill:rgb(100%,100%,100%);fill-opacity:1;" d="M 12.332031 10.65625 L 12.332031 12.546875 L 13.535156 12.546875 L 13.535156 8.765625 L 12.332031 8.765625 Z M 12.332031 10.65625 "/>
<path style=" stroke:none;fill-rule:nonzero;fill:rgb(0%,0%,0%);fill-opacity:1;" d="M 2.902344 5.886719 C 2.714844 5.925781 2.605469 5.992188 2.476562 6.144531 C 2.246094 6.414062 2.273438 6.796875 2.539062 7.058594 L 2.707031 7.226562 L 2.707031 8 C 2.707031 8.761719 2.707031 8.769531 2.816406 8.871094 C 2.914062 8.976562 2.9375 8.980469 3.480469 8.980469 L 4.046875 8.980469 L 4.28125 8.78125 C 4.460938 8.628906 4.511719 8.554688 4.511719 8.460938 L 4.511719 8.335938 L 3.351562 8.335938 L 3.351562 7.226562 L 3.519531 7.058594 C 3.785156 6.796875 3.8125 6.414062 3.582031 6.144531 C 3.402344 5.929688 3.144531 5.835938 2.902344 5.886719 Z M 2.902344 5.886719 "/>
<path style=" stroke:none;fill-rule:nonzero;fill:rgb(100%,100%,100%);fill-opacity:1;" d="M 18.277344 5.886719 C 17.960938 5.960938 17.746094 6.234375 17.746094 6.574219 C 17.746094 6.78125 17.882812 7.054688 18.035156 7.152344 C 18.128906 7.21875 18.132812 7.25 18.132812 7.691406 L 18.132812 8.164062 L 17.660156 8.164062 L 17.660156 8.765625 L 18.105469 8.765625 C 18.765625 8.765625 18.75 8.78125 18.769531 7.910156 L 18.78125 7.222656 L 18.929688 7.078125 C 19.429688 6.574219 18.972656 5.726562 18.277344 5.886719 Z M 18.277344 5.886719 "/>
<path style=" stroke:none;fill-rule:nonzero;fill:rgb(100%,100%,100%);fill-opacity:1;" d="M 20.761719 6.304688 C 20.609375 6.332031 20.335938 6.617188 20.285156 6.808594 C 20.210938 7.085938 20.339844 7.453125 20.542969 7.566406 C 20.621094 7.605469 20.625 7.679688 20.625 8.636719 L 20.625 9.667969 L 18.265625 9.667969 L 18.417969 9.976562 L 18.5625 10.289062 L 19.78125 10.304688 C 20.960938 10.3125 21.003906 10.3125 21.109375 10.222656 L 21.226562 10.136719 L 21.226562 7.664062 L 21.359375 7.566406 C 21.5625 7.417969 21.65625 7.226562 21.65625 6.976562 C 21.65625 6.519531 21.25 6.214844 20.761719 6.304688 Z M 20.761719 6.304688 "/>
<path style=" stroke:none;fill-rule:nonzero;fill:rgb(100%,100%,100%);fill-opacity:1;" d="M 0.773438 9.585938 C 0.511719 9.695312 0.34375 9.953125 0.34375 10.257812 C 0.34375 10.5 0.457031 10.707031 0.652344 10.828125 C 0.96875 11.015625 1.296875 10.976562 1.546875 10.71875 L 1.691406 10.570312 L 3.160156 10.570312 L 3.25 10.246094 L 3.339844 9.925781 L 1.675781 9.925781 L 1.605469 9.816406 C 1.464844 9.597656 1.039062 9.484375 0.773438 9.585938 Z M 0.773438 9.585938 "/>
<path style=" stroke:none;fill-rule:nonzero;fill:rgb(100%,100%,100%);fill-opacity:1;" d="M 20.734375 11.0625 C 20.636719 11.09375 20.5 11.191406 20.425781 11.273438 L 20.292969 11.429688 L 19.449219 11.429688 C 18.636719 11.429688 18.605469 11.433594 18.605469 11.515625 C 18.605469 11.5625 18.566406 11.695312 18.523438 11.816406 L 18.441406 12.03125 L 20.308594 12.03125 L 20.398438 12.152344 C 20.679688 12.535156 21.328125 12.492188 21.566406 12.074219 C 21.878906 11.511719 21.335938 10.84375 20.734375 11.0625 Z M 20.734375 11.0625 "/>
<path style=" stroke:none;fill-rule:nonzero;fill:rgb(100%,100%,100%);fill-opacity:1;" d="M 0.988281 11.675781 C 0.953125 11.6875 0.890625 11.726562 0.851562 11.765625 C 0.78125 11.824219 0.773438 11.941406 0.773438 13.0625 L 0.773438 14.292969 L 0.640625 14.390625 C 0.125 14.773438 0.3125 15.585938 0.933594 15.671875 C 1.289062 15.71875 1.628906 15.496094 1.714844 15.152344 C 1.773438 14.910156 1.710938 14.691406 1.519531 14.484375 L 1.375 14.320312 L 1.375 12.289062 L 2.453125 12.289062 C 3.046875 12.289062 3.523438 12.273438 3.515625 12.253906 C 3.507812 12.238281 3.445312 12.089844 3.378906 11.933594 L 3.253906 11.644531 L 2.152344 11.648438 C 1.546875 11.648438 1.023438 11.660156 0.988281 11.675781 Z M 0.988281 11.675781 "/>
<path style=" stroke:none;fill-rule:nonzero;fill:rgb(100%,100%,100%);fill-opacity:1;" d="M 17.5 13.160156 C 17.3125 13.3125 17.273438 13.363281 17.273438 13.480469 L 17.273438 13.621094 L 18.648438 13.621094 L 18.648438 14.765625 L 18.527344 14.855469 C 18.136719 15.140625 18.203125 15.777344 18.648438 16.015625 C 18.75 16.070312 18.894531 16.113281 18.972656 16.113281 C 19.195312 16.113281 19.46875 15.941406 19.582031 15.726562 C 19.75 15.414062 19.683594 15.074219 19.417969 14.851562 L 19.292969 14.742188 L 19.292969 13.992188 C 19.292969 13.578125 19.28125 13.207031 19.265625 13.167969 C 19.207031 13.015625 19.023438 12.976562 18.359375 12.980469 L 17.726562 12.984375 Z M 17.5 13.160156 "/>
<path style=" stroke:none;fill-rule:nonzero;fill:rgb(100%,100%,100%);fill-opacity:1;" d="M 3.382812 13.242188 C 3.257812 13.339844 3.222656 13.53125 3.222656 14.15625 C 3.222656 14.714844 3.214844 14.78125 3.140625 14.820312 C 3.035156 14.878906 2.917969 15.070312 2.875 15.25 C 2.789062 15.617188 3.082031 16.035156 3.460938 16.089844 C 3.613281 16.117188 3.691406 16.105469 3.855469 16.023438 C 4.113281 15.890625 4.21875 15.742188 4.246094 15.472656 C 4.269531 15.207031 4.207031 15.039062 4.011719 14.867188 L 3.867188 14.742188 L 3.867188 13.835938 L 4.125 13.835938 L 4.125 13.191406 L 3.789062 13.191406 C 3.589844 13.191406 3.425781 13.210938 3.382812 13.242188 Z M 3.382812 13.242188 "/>
<path style=" stroke:none;fill-rule:nonzero;fill:rgb(100%,100%,100%);fill-opacity:1;" d="M 10.277344 17.757812 C 10.222656 17.820312 10.089844 17.914062 9.984375 17.96875 L 9.796875 18.066406 L 9.796875 20.925781 L 7.722656 20.925781 L 7.558594 20.78125 C 7.210938 20.460938 6.683594 20.554688 6.46875 20.972656 C 6.386719 21.128906 6.386719 21.453125 6.46875 21.609375 C 6.695312 22.054688 7.230469 22.125 7.597656 21.757812 L 7.789062 21.570312 L 8.984375 21.570312 C 10.164062 21.570312 10.179688 21.570312 10.292969 21.472656 L 10.402344 21.375 L 10.390625 19.515625 L 10.378906 17.652344 Z M 10.277344 17.757812 "/>
<path style=" stroke:none;fill-rule:nonzero;fill:rgb(100%,100%,100%);fill-opacity:1;" d="M 11.515625 19.226562 L 11.515625 20.628906 L 11.371094 20.757812 C 10.992188 21.089844 11.078125 21.710938 11.53125 21.917969 C 11.769531 22.027344 11.9375 22.023438 12.160156 21.902344 C 12.371094 21.789062 12.546875 21.515625 12.546875 21.300781 C 12.546875 21.125 12.390625 20.808594 12.261719 20.722656 L 12.160156 20.660156 L 12.160156 18.140625 L 12.023438 18.09375 C 11.945312 18.0625 11.808594 17.996094 11.722656 17.9375 C 11.632812 17.878906 11.550781 17.832031 11.539062 17.832031 C 11.523438 17.832031 11.515625 18.460938 11.515625 19.226562 Z M 11.515625 19.226562 "/>
<path style=" stroke:none;fill-rule:nonzero;fill:rgb(100%,100%,100%);fill-opacity:1;" d="M 6.355469 18.144531 C 5.882812 18.394531 5.84375 19.023438 6.28125 19.347656 C 6.542969 19.546875 7.035156 19.46875 7.230469 19.199219 L 7.320312 19.078125 L 7.996094 19.078125 C 8.847656 19.078125 8.863281 19.070312 8.886719 18.59375 C 8.90625 18.226562 8.9375 18.261719 8.539062 18.195312 C 8.449219 18.183594 8.34375 18.160156 8.308594 18.144531 C 8.265625 18.128906 8.25 18.164062 8.25 18.277344 L 8.25 18.433594 L 7.328125 18.433594 L 7.199219 18.300781 C 6.949219 18.035156 6.664062 17.980469 6.355469 18.144531 Z M 6.355469 18.144531 "/>
<path style=" stroke:none;fill-rule:nonzero;fill:rgb(100%,100%,100%);fill-opacity:1;" d="M 13.40625 18.121094 C 13.300781 18.152344 13.1875 18.1875 13.160156 18.203125 C 13.117188 18.210938 13.105469 18.375 13.105469 18.816406 C 13.105469 19.65625 13.050781 19.609375 14.078125 19.628906 C 14.871094 19.640625 14.878906 19.644531 14.960938 19.75 C 15.160156 19.996094 15.59375 20.070312 15.863281 19.902344 C 16.183594 19.707031 16.296875 19.238281 16.101562 18.945312 C 15.945312 18.71875 15.75 18.605469 15.496094 18.605469 C 15.25 18.605469 15.042969 18.703125 14.925781 18.882812 C 14.859375 18.992188 14.851562 18.992188 14.304688 18.992188 L 13.75 18.992188 L 13.75 18.519531 C 13.75 17.988281 13.761719 18.003906 13.40625 18.121094 Z M 13.40625 18.121094 "/>
</g>
</svg>
